<svg xmlns="http://www.w3.org/2000/svg" viewBox="0 0 100 100" fill-rule="evenodd"><rect x="0" y="0" width="100" height="100" fill="#c1dbd0" rx="50" ry="50"></rect><g class="t-group-origins" style="transform-origin:center;transform:scale(0.8);"><path d="M80.6 25c-3.7-.1-7.4.8-10.6 2.7-1.5.9-3.2 1.5-5 1.8v-.1c0-9.3-7.5-16.8-16.8-16.8-.8 0-1.5.7-1.5 1.5s.7 1.5 1.5 1.5c7.6 0 13.8 6.2 13.8 13.8v.1c-2.2-.3-4.3-.9-6.2-1.9-3.3-1.6-6.8-2.5-10.5-2.5-10.8 0-16.7 9.6-16.7 27v1.6C14.6 51.2 6 46.6 6 42.4c0-3.9 8.4-9.3 22.5-11.6.8-.1 1.4-.9 1.3-1.7-.1-.8-.9-1.4-1.7-1.3C13.3 30.3 3 36.2 3 42.4v19.1c0 4.7 5.1 8.8 14.8 11.8 7 2.1 14.2 3.3 21.5 3.9l.1.1c14 13.3 36.1 12.8 49.5-1.1C95 69.6 98.5 61 98.5 52c0-17.4-6.3-27-17.9-27zM6 61.5V48.3c1.8 1.5 3.8 2.8 6 3.7v7.5c0 .8.7 1.5 1.5 1.5s1.5-.7 1.5-1.5v-6.3c.9.3 1.8.7 2.8 1 2.2.7 4.6 1.3 7.2 1.8v7.5c0 .8.7 1.5 1.5 1.5s1.5-.7 1.5-1.5v-6.9c3.2.6 6.5 1 10 1.3v7.6c0 .8.7 1.5 1.5 1.5s1.5-.7 1.5-1.5v-7.3c3.4.2 6.9.4 10.4.4h.6v7c0 .8.7 1.5 1.5 1.5s1.5-.7 1.5-1.5v-7c3.8-.1 7.4-.3 11-.7V74c-4.8.5-9.7.7-14.6.7C24.7 74.7 6 67.8 6 61.5zM63.5 84c-7 0-13.8-2.3-19.3-6.5 2.4.1 4.8.2 7.2.2 5.4 0 10.8-.3 16.2-.9.7-.1 1.3-.7 1.3-1.5V56.2c0-.8-.7-1.5-1.5-1.5h-.2c-5.3.6-10.6.9-15.9.9-6.6 0-13.3-.4-19.8-1.4 0-.7-.1-1.4-.1-2.1 0-9 1.8-24 13.7-24 3.2 0 6.4.8 9.3 2.3 2.3 1.2 4.9 1.9 7.5 2.2V41c-5.9-.3-7.5-3-7.6-3.1-.4-.7-1.3-1-2-.6s-.9 1.2-.6 1.9c.1.2 2.5 4.8 11.3 4.8 8.6 0 12-4.4 12.1-4.6.5-.7.3-1.6-.4-2.1-.6-.5-1.5-.3-2 .3-.1.1-2.2 2.8-7.8 3.3v-8.3c2.3-.2 4.5-1 6.5-2.1 2.8-1.6 6-2.4 9.2-2.3 12.3 0 14.9 13 14.9 24 0 17.5-14.3 31.8-32 31.8z" stroke-width="0" stroke="#ff9415" fill="#ff9415" stroke-width-old="0"></path><path d="M88.9 45.1c-.2-.8-1.1-1.3-1.9-1-.8.2-1.3 1.1-1 1.9 1.4 6.4.2 13.2-3.4 18.7-.5.7-.3 1.6.4 2.1s1.6.3 2.1-.4c4.2-6.4 5.5-14.1 3.8-21.3z" stroke-width="0" stroke="#ff9415" fill="#ff9415" stroke-width-old="0"></path></g></svg>
